<?xml version="1.0" encoding="utf-8"?>
<!-- Generator: Adobe Illustrator 21.0.1, SVG Export Plug-In . SVG Version: 6.00 Build 0)  -->
<svg version="1.1" id="Layer_1" xmlns="http://www.w3.org/2000/svg" xmlns:xlink="http://www.w3.org/1999/xlink" x="0px" y="0px"
	 viewBox="0 0 90 90" style="enable-background:new 0 0 90 90;" xml:space="preserve">
<style type="text/css">
	.st0{fill:#63A70A;}
</style>
<path class="st0" d="M45,0C20.1,0,0,20.1,0,45c0,24.9,20.1,45,45,45c24.9,0,45-20.1,45-45C90,20.1,69.9,0,45,0z M76.4,46.1
	c-0.4,3-0.9,5.7-1.9,8.5c-4,12.3-15.9,21.3-29.6,21.3c-17,0-30.8-13.8-30.8-30.8c5.8,7.3,17,10.3,27.8,8.1
	c9.1-1.8,19.6-6.8,27.5,0.8c0.1,4.3-6.8,10.3-12.2,12.6c-6.9,2.9-14,1.9-14,1.9c9.5,4.1,21.6-3.2,25-7c3.6-3.9,5.7-9.3,5.3-14.5
	c-0.1-0.7-0.1-1.2-0.3-1.9h3.3C76.5,45.4,76.5,45.7,76.4,46.1z"/>
</svg>
